/* XPM */
static char * attacked_left_2_xpm[] = {
"58 62 44 1",
" 	c None",
".	c #332B13",
"+	c #4B371B",
"@	c #5F4323",
"#	c #6B4727",
"$	c #875733",
"%	c #774F2B",
"&	c #8F5F37",
"*	c #B37347",
"=	c #9B633B",
"-	c #3F2F17",
";	c #BF7B4B",
">	c #2B230F",
",	c #A36B3F",
"'	c #533F1F",
")	c #7F532F",
"!	c #D78B5B",
"~	c #E79B6B",
"{	c #CF8353",
"]	c #AB6F43",
"^	c #EFA373",
"/	c #FFB383",
"(	c #F7AB7B",
"_	c #FFBB93",
":	c #FFC7A7",
"<	c #DF9363",
"[	c #000000",
"}	c #8F2B2B",
"|	c #972F2F",
"1	c #5F0707",
"2	c #AF4747",
"3	c #CB7F4F",
"4	c #CB6B6B",
"5	c #6B0F0F",
"6	c #5B0707",
"7	c #530707",
"8	c #7F1B1B",
"9	c #A73F3F",
"0	c #831F1F",
"a	c #BF5B5B",
"b	c #BB5757",
"c	c #B34F4F",
"d	c #8B2323",
"e	c #771717",
"                      ................++++                ",
"                      ................++++                ",
"                ....@@@@##$$$$$$%%%%####@@++++            ",
"                ....@@@@##$$$$$$%%%%####@@++++            ",
"              ++@@##$$&&****====&&$$%%##@@++++++..        ",
"              ++@@##$$&&****====&&$$%%##@@++++++..        ",
"          ++..++@@##$$&&========&&$$%%@@@@++++----..      ",
"          ++..++@@##$$&&========&&$$%%@@@@++++----..      ",
"        ++++++@@&&**;;;;**==&&$$%%@@@@@@++++--++..--..    ",
"        ++++++@@&&**;;;;**==&&$$%%@@@@@@++++--++..--..    ",
"      @@++++@@&&==========&&$$%%@@@@@@@@++++----++--..    ",
"      @@++++@@&&==========&&$$%%@@@@@@@@++++----++--..    ",
"    ++@@%%%%##%%%%%%%%&&&&%%%%##@@@@@@++++++++--------..  ",
"    ++@@%%%%##%%%%%%%%&&&&%%%%##@@@@@@++++++++--------..  ",
"  >>##$$==$$$$&&&&%%######&&,,@@''''##''----++++------..  ",
"  >>##$$==$$$$&&&&%%######&&,,@@''''##''----++++------..  ",
"  >>------==$$##@@##%%++++@@@@))&&##''####++--..++....--..",
"  >>------==$$##@@##%%++++@@@@))&&##''####++--..++....--..",
">>++>>>>>>@@##==####++##++--..----##&&@@++##++--......--..",
">>++>>>>>>@@##==####++##++--..----##&&@@++##++--......--..",
">>>>>>##&&&&@@++++&&$$..##''%%%%@@..@@%%@@++##++--....--..",
">>>>>>##&&&&@@++++&&$$..##''%%%%@@..@@%%@@++##++--....--..",
"  >>++@@,,!!**&&''******..##&&,,==@@..@@%%@@++''--....--..",
"  >>++@@,,!!**&&''******..##&&,,==@@..@@%%@@++''--....--..",
"      &&!!~~!!!!,,''{{~~**##$$]]&&==''++@@++....''--......",
"      &&!!~~!!!!,,''{{~~**##$$]]&&==''++@@++....''--......",
"      ,,^^~~!!!!!!!!''//^^!!##]]&&&&))++++########''......",
"      ,,^^~~!!!!!!!!''//^^!!##]]&&&&))++++########''......",
"      ]]{{^^~~!!^^//((__::^^<<;;]]&&))####&&@@==$$$$......",
"      ]]{{^^~~!!^^//((__::^^<<;;]]&&))####&&@@==$$$$......",
"      @@]]{{____<<__^^<<,,$$,,~~{{]]&&&&&&====$$**$$......",
"      @@]]{{____<<__^^<<,,$$,,~~{{]]&&&&&&====$$**$$......",
"      ----@@]]{{,,**%%------@@,,!!{{,,,,,,,,;;''**&&......",
"      ----@@]]{{,,**%%------@@,,!!{{,,,,,,,,;;''**&&......",
"        --[[}}[[]]++||[[[[1122##,,33<<,,&&&&##''==##......",
"        --[[}}[[]]++||[[[[1122##,,33<<,,&&&&##''==##......",
"        ]]||##,,__$$##..||44####**!!{{,,$$$$''**##......  ",
"        ]]||##,,__$$##..||44####**!!{{,,$$$$''**##......  ",
"        ]]((&&;;<<==$$@@@@@@==!!((<<;;$$&&$$&&##''......  ",
"        ]]((&&;;<<==$$@@@@@@==!!((<<;;$$&&$$&&##''......  ",
"        ==((<<{{<<==&&!!^^______//{{,,$$,,$$&&))))......  ",
"        ==((<<{{<<==&&!!^^______//{{,,$$,,$$&&))))......  ",
"        $$!!<<<<((;;~~]],,<<((__((**$$$$;;&&$$))))......  ",
"        $$!!<<<<((;;~~]],,<<((__((**$$$$;;&&$$))))......  ",
"          &&<<;;((**%%##$$,,!!^^~~;;$$$$;;,,==))&&....    ",
"          &&<<;;((**%%##$$,,!!^^~~;;$$$$;;,,==))&&....    ",
"          ##]]&&&&##5555,,{{,,<<!!{{$$&&]]====&&&&))      ",
"          ##]]&&&&##5555,,{{,,<<!!{{$$&&]]====&&&&))      ",
"            ==}}66775588{{<<{{,,{{{{&&======))&&==        ",
"            ==}}66775588{{<<{{,,{{{{&&======))&&==        ",
"            &&990099aaaa^^44aa,,;;;;&&====$$@@&&          ",
"            &&990099aaaa^^44aa,,;;;;&&====$$@@&&          ",
"            ##bb00111188aa0099bb;;;;,,==))@@##            ",
"            ##bb00111188aa0099bb;;;;,,==))@@##            ",
"              &&}}ccaa99{{]]bb]]{{;;,,==))                ",
"              &&}}ccaa99{{]]bb]]{{;;,,==))                ",
"              &&,,0011dddd==]]~~{{]]==@@                  ",
"              &&,,0011dddd==]]~~{{]]==@@                  ",
"              ##&&}}cc}}99{{~~{{==))++                    ",
"              ##&&}}cc}}99{{~~{{==))++                    ",
"                ##}}55ee99,,&&))++++                      ",
"                ##}}55ee99,,&&))++++                      "};
