/* XPM */
static char * attacked_right_2_xpm[] = {
"58 62 44 1",
" 	c None",
".	c #332B13",
"+	c #4B371B",
"@	c #5F4323",
"#	c #774F2B",
"$	c #875733",
"%	c #6B4727",
"&	c #8F5F37",
"*	c #9B633B",
"=	c #B37347",
"-	c #3F2F17",
";	c #BF7B4B",
">	c #AB6F43",
",	c #A36B3F",
"'	c #533F1F",
")	c #7F532F",
"!	c #2B230F",
"~	c #CF8353",
"{	c #DF9363",
"]	c #F7AB7B",
"^	c #EFA373",
"/	c #E79B6B",
"(	c #D78B5B",
"_	c #FFC7A7",
":	c #FFBB93",
"<	c #FFB383",
"[	c #CB7F4F",
"}	c #AF4747",
"|	c #5F0707",
"1	c #000000",
"2	c #972F2F",
"3	c #8F2B2B",
"4	c #CB6B6B",
"5	c #6B0F0F",
"6	c #7F1B1B",
"7	c #530707",
"8	c #8B2323",
"9	c #BB5757",
"0	c #A73F3F",
"a	c #B34F4F",
"b	c #C76363",
"c	c #831F1F",
"d	c #BF5B5B",
"e	c #771717",
"                                                          ",
"                 ..++@@####$$$$$$%%++..                   ",
"                 ..++@@####$$$$$$%%++..                   ",
"             ..++@@%%##$$&&****====&&$$%%@@               ",
"             ..++@@%%##$$&&****====&&$$%%@@               ",
"         ----++++@@@@##$$&&********&&$$##@@++..           ",
"         ----++++@@@@##$$&&********&&$$##@@++..           ",
"       --..++--++++@@@@@@##$$&&**==;;;;==&&##++++         ",
"       --..++--++++@@@@@@##$$&&**==;;;;==&&##++++         ",
"     ..--++----++++@@@@@@@@##$$&&********>>**$$##++       ",
"     ..--++----++++@@@@@@@@##$$&&********>>**$$##++       ",
"     --------++++++++@@@@@@%%####&&&&####&&>>>>,,**@@     ",
"     --------++++++++@@@@@@%%####&&&&####&&>>>>,,**@@     ",
"   ..------++++----''%%''''@@,,&&%%%%%%##&&&&&&>>**$$%%   ",
"   ..------++++----''%%''''@@,,&&%%%%%%##&&&&&&>>**$$%%   ",
"   ......++..--++%%%%''%%&&))@@@@++++##%%####$$****----!! ",
"   ......++..--++%%%%''%%&&))@@@@++++##%%####$$****----!! ",
" ..........--++%%++@@&&%%----..--++%%++%%&&&&**@@!!!!!!++ ",
" ..........--++%%++@@&&%%----..--++%%++%%&&&&**@@!!!!!!++ ",
" ..............++++++@@@@$$**,,====&&&&--%%%%!!@@++..!!   ",
" ..............++++++@@@@$$**,,====&&&&--%%%%!!@@++..!!   ",
" ..................++@@&&>>==~~{{]]^^//**@@>>{{++&&++++   ",
" ..................++@@&&>>==~~{{]]^^//**@@>>{{++&&++++   ",
" ................++@@@@&&==;;((^^]]]]//((~~,,((>>--++     ",
" ................++@@@@&&==;;((^^]]]]//((~~,,((>>--++     ",
" ........%%%%%%%%++++@@&&==~~((^^]]]]////((~~>>((^^,,     ",
" ........%%%%%%%%++++@@&&==~~((^^]]]]////((~~>>((^^,,     ",
" ......$$$$**@@&&%%%%@@&&==(({{^^__::]]<<^^((((^^~~>>     ",
" ......$$$$**@@&&%%%%@@&&==(({{^^__::]]<<^^((((^^~~>>     ",
" ......$$==$$****&&&&&&>>~~//,,$$,,{{^^::{{::::~~>>@@     ",
" ......$$==$$****&&&&&&>>~~//,,$$,,{{^^::{{::::~~>>@@     ",
" ......&&=='';;,,,,,,,,~~((,,@@------##==,,~~>>@@----     ",
" ......&&=='';;,,,,,,,,~~((,,@@------##==,,~~>>@@----     ",
" ......%%**''%%&&&&,,{{[[,,%%}}||111122++>>113311--       ",
" ......%%**''%%&&&&,,{{[[,,%%}}||111122++>>113311--       ",
"   ......%%==''$$$$,,~~((==%%%%4422..%%$$::,,%%22>>       ",
"   ......%%==''$$$$,,~~((==%%%%4422..%%$$::,,%%22>>       ",
"   ......''%%&&$$&&$$;;////((**@@@@@@$$**{{;;&&]]>>       ",
"   ......''%%&&$$&&$$;;////((**@@@@@@$$**{{;;&&]]>>       ",
"   ......))))&&$$,,$$,,~~<<::::::^^((&&**{{~~{{]]**       ",
"   ......))))&&$$,,$$,,~~<<::::::^^((&&**{{~~{{]]**       ",
"   ......))))$$&&;;$$$$==]]::]]{{,,>>//;;]]{{{{(($$       ",
"   ......))))$$&&;;$$$$==]]::]]{{,,>>//;;]]{{{{(($$       ",
"     ....&&))**,,;;$$$$;;^^::((,,$$55##==]];;((&&         ",
"     ....&&))**,,;;$$$$;;^^::((,,$$55##==]];;((&&         ",
"     ..))&&&&****>>&&$$~~^^~~,,~~,,6655%%&&&&>>%%         ",
"     ..))&&&&****>>&&$$~~^^~~,,~~,,6655%%&&&&>>%%         ",
"         **&&))******&&~~//,,~~{{~~66||778888**           ",
"         **&&))******&&~~//,,~~{{~~66||778888**           ",
"           &&@@$$****&&;;{{,,~~~~^^99}}000022&&           ",
"           &&@@$$****&&;;{{,,~~~~^^99}}000022&&           ",
"             %%@@))**>>;;~~,,>>,,008855||||,,%%           ",
"             %%@@))**>>;;~~,,>>,,008855||||,,%%           ",
"               %%))**;;;;[[>>,,>>~~aaaa44bb00             ",
"               %%))**;;;;[[>>,,>>~~aaaa44bb00             ",
"                   @@**>>~~//>>****cc55||88&&             ",
"                   @@**>>~~//>>****cc55||88&&             ",
"                     ++))**~~//~~~~dd2288&&%%             ",
"                     ++))**~~//~~~~dd2288&&%%             ",
"                       ++++))&&,,00ee5533%%               ",
"                       ++++))&&,,00ee5533%%               ",
"                                                          "};
