/* XPM */
static char * attacked_left_5_xpm[] = {
"58 62 41 1",
" 	c None",
".	c #3F2F17",
"+	c #5F4323",
"@	c #6B4727",
"#	c #774F2B",
"$	c #2B230F",
"%	c #4B371B",
"&	c #9B633B",
"*	c #BF7B4B",
"=	c #AB6F43",
"-	c #A36B3F",
";	c #8F5F37",
">	c #7F532F",
",	c #533F1F",
"'	c #DF9363",
")	c #EFA373",
"!	c #FFB383",
"~	c #D78B5B",
"{	c #CF8353",
"]	c #B37347",
"^	c #875733",
"/	c #CB7F4F",
"(	c #E79B6B",
"_	c #332B13",
":	c #FFBB93",
"<	c #FFC7A7",
"[	c #F7AB7B",
"}	c #000000",
"|	c #A7A7A7",
"1	c #6B6B6B",
"2	c #DFDFDF",
"3	c #BB5757",
"4	c #EB9797",
"5	c #FFBF9B",
"6	c #FFCFB3",
"7	c #474747",
"8	c #7F7F7F",
"9	c #5B5B5B",
"0	c #ABABAB",
"a	c #FFA35B",
"b	c #FFD3BB",
"                                                          ",
"                   ..++@@##########@@..$$                 ",
"                   ..++@@##########@@..$$                 ",
"             %%++@@&&&&****==--;;;;>>@@,,%%$$             ",
"             %%++@@&&&&****==--;;;;>>@@,,%%$$             ",
"         %%@@;;**''))!!!!))~~{{]]--^^##++,,%%$$           ",
"         %%@@;;**''))!!!!))~~{{]]--^^##++,,%%$$           ",
"       @@]]~~{{//****(({{]]==]]**^^^^^^##,,%%..$$         ",
"       @@]]~~{{//****(({{]]==]]**^^^^^^##,,%%..$$         ",
"     $$]]&&((]]--####&&((@@&&^^>>&&##@@##,,%%%%..$$       ",
"     $$]]&&((]]--####&&((@@&&^^>>&&##@@##,,%%%%..$$       ",
"     __;;$$$$~~++%%$$,,&&==$$%%##@@>>++++++%%..%%..$$     ",
"     __;;$$$$~~++%%$$,,&&==$$%%##@@>>++++++%%..%%..$$     ",
"     __@@$$@@%%;;%%$$$$@@&&%%$$..,,@@,,,,,,%%__..%%..     ",
"     __@@$$@@%%;;%%$$$$@@&&%%$$..,,@@,,,,,,%%__..%%..     ",
"       @@@@####++;;++,,,,@@++%%$$..,,@@%%%%,,..__..%%$$   ",
"       @@@@####++;;++,,,,@@++%%$$..,,@@%%%%,,..__..%%$$   ",
"       @@;;;;;;;;##;;;;;;;;@@&&##..$$,,,,%%%%..____%%__   ",
"       @@;;;;;;;;##;;;;;;;;@@&&##..$$,,,,%%%%..____%%__   ",
"       ==]]]]]]]];;&&==//{{&&{{&&>>%%..,,%%%%..____....   ",
"       ==]]]]]]]];;&&==//{{&&{{&&>>%%..,,%%%%..____....   ",
"     ==))~~{{========//''''''{{]]&&++%%,,,,%%%%..____..   ",
"     ==))~~{{========//''''''{{]]&&++%%,,,,%%%%..____..   ",
"     ~~::'''']]]]]]{{''::<<::''**&&##++,,,,%%%%..____..   ",
"     ~~::'''']]]]]]{{''::<<::''**&&##++,,,,%%%%..____..   ",
"   ;;((::))'']]{{''[[::[[::<<[[[[]]##++++,,%%%%..______   ",
"   ;;((::))'']]{{''[[::[[::<<[[[[]]##++++,,%%%%..______   ",
"   ......]]))==::~~=={{]];;..,,^^~~;;####^^]]--@@______   ",
"   ......]]))==::~~=={{]];;..,,^^~~;;####^^]]--@@______   ",
"     @@}}||,,##]]]]##++....;;//==&&&&;;;;]]>>++,,^^$$__   ",
"     @@}}||,,##]]]]##++....;;//==&&&&;;;;]]>>++,,^^$$__   ",
"     //&&##$$..,,%%,,@@}}1122@@==--&&;;&&>>>>++]]^^$$$$   ",
"     //&&##$$..,,%%,,@@}}1122@@==--&&;;&&>>>>++]]^^$$$$   ",
"   >>''[[{{##;;[[--@@..;;3344==((~~**;;&&--&&,,]]@@$$     ",
"   >>''[[{{##;;[[--@@..;;3344==((~~**;;&&--&&,,]]@@$$     ",
"   >>!!55{{##~~<<&&--{{==//''''[[''{{;;&&;;@@,,&&%%$$     ",
"   >>!!55{{##~~<<&&--{{==//''''[[''{{;;&&;;@@,,&&%%$$     ",
"   ;;66!!**##::''&&;;**[[(({{////**&&^^^^^^,,;;@@$$__     ",
"   ;;66!!**##::''&&;;**[[(({{////**&&^^^^^^,,;;@@$$__     ",
"   ;;))((==--((~~==((==''<<''--^^^^^^^^^^^^;;]]$$$$       ",
"   ;;))((==--((~~==((==''<<''--^^^^^^^^^^^^;;]]$$$$       ",
"   ;;~~{{######,,,,..@@##))::**&&;;;;&&^^^^;;$$$$__       ",
"   ;;~~{{######,,,,..@@##))::**&&;;;;&&^^^^;;$$$$__       ",
"   ++]]==##--&&&&]]----##**[[~~&&==**==^^^^%%$$__         ",
"   ++]]==##--&&&&]]----##**[[~~&&==**==^^^^%%$$__         ",
"   ++]]--++--[[''{{)){{;;&&''{{&&**//--^^^^%%__           ",
"   ++]]--++--[[''{{)){{;;&&''{{&&**//--^^^^%%__           ",
"   %%{{--++777788119977&&^^((**&&**==;;^^^^               ",
"   %%{{--++777788119977&&^^((**&&**==;;^^^^               ",
"     '']]++77  2200007777--((==&&==;;^^                   ",
"     '']]++77  2200007777--((==&&==;;^^                   ",
"     //((^^]]aaaaaa~~;;^^****&&&&;;^^                     ",
"     //((^^]]aaaaaa~~;;^^****&&&&;;^^                     ",
"     {{bb55{{^^^^^^@@@@==**&&&&;;^^                       ",
"     {{bb55{{^^^^^^@@@@==**&&&&;;^^                       ",
"     ;;55bb[[)){{//--;;;;&&&&&&>>                         ",
"     ;;55bb[[)){{//--;;;;&&&&&&>>                         ",
"       --))55))''**----&&&&>>                             ",
"       --))55))''**----&&&&>>                             ",
"         ;;]]]]]]]]]]>>@@                                 ",
"         ;;]]]]]]]]]]>>@@                                 ",
"                                                          "};
