/* XPM */
static char * glance_left_2_xpm[] = {
"48 58 47 1",
" 	c None",
".	c #533F1F",
"+	c #5F4323",
"@	c #774F2B",
"#	c #AB6F43",
"$	c #8F5F37",
"%	c #6B4727",
"&	c #875733",
"*	c #332B13",
"=	c #9B633B",
"-	c #A36B3F",
";	c #CF8353",
">	c #B37347",
",	c #4B371B",
"'	c #BF7B4B",
")	c #3F2F17",
"!	c #2B230F",
"~	c #DF9363",
"{	c #EFA373",
"]	c #7F532F",
"^	c #000000",
"/	c #D78B5B",
"(	c #E79B6B",
"_	c #831F1F",
":	c #530707",
"<	c #8B2323",
"[	c #9B3333",
"}	c #972F2F",
"|	c #D37373",
"1	c #AF4747",
"2	c #CB7F4F",
"3	c #FFBB93",
"4	c #F7AB7B",
"5	c #FFC7A7",
"6	c #5F0707",
"7	c #5B0707",
"8	c #BB5757",
"9	c #771717",
"0	c #6B0F0F",
"a	c #A33B3B",
"b	c #470000",
"c	c #7F1B1B",
"d	c #CB6B6B",
"e	c #B34F4F",
"f	c #DB7B7B",
"g	c #A73F3F",
"h	c #8F2B2B",
"        ..++@@@@##$$%%$$##$$@@&&&&..++++**      ",
"        ..++@@@@##$$%%$$##$$@@&&&&..++++**      ",
"      %%@@==$$--==##$$##;;>>@@&&@@$$%%%%,,**    ",
"      %%@@==$$--==##$$##;;>>@@&&@@$$%%%%,,**    ",
"    ,,@@==$$--##>>''''''##--==@@@@@@$$,,))!!    ",
"    ,,@@==$$--##>>''''''##--==@@@@@@$$,,))!!    ",
"    ++$$$$--==##''~~~~~~;;##$$&&&&%%&&,,))!!!!  ",
"    ++$$$$--==##''~~~~~~;;##$$&&&&%%&&,,))!!!!  ",
"  !!@@&&$$--=='';;~~{{~~;;;;>>&&$$@@..,,))**!!  ",
"  !!@@&&$$--=='';;~~{{~~;;;;>>&&$$@@..,,))**!!  ",
"  !!@@]]$$$$%%==>>;;~~;;>>--;;$$@@$$..,,))**!!  ",
"  !!@@]]$$$$%%==>>;;~~;;>>--;;$$@@$$..,,))**!!  ",
"  !!@@]]%%%%==##;;>>;;>>''>>$$;;@@$$..,,))**!!  ",
"  !!@@]]%%%%==##;;>>;;>>''>>$$;;@@$$..,,))**!!  ",
"  !!..%%))%%$$;;==##======''==>>++%%,,))****!!  ",
"  !!..%%))%%$$;;==##======''==>>++%%,,))****!!  ",
"  !!))**,,]]$$##==$$%%$$==##]]==..%%,,**))))!!  ",
"  !!))**,,]]$$##==$$%%$$==##]]==..%%,,**))))!!  ",
"  !!****,,@@##&&&&]]))]]==--++&&,,,,****))))!!  ",
"  !!****,,@@##&&&&]]))]]==--++&&,,,,****))))!!  ",
"  !!++)),,++$$@@$$++))++@@==**@@,,**,,++,,))!!  ",
"  !!++)),,++$$@@$$++))++@@==**@@,,**,,++,,))!!  ",
"++!!++@@))++@@%%$$..@@))@@==++**++**@@]],,))%%$$",
"++!!++@@))++@@%%$$..@@))@@==++**++**@@]],,))%%$$",
"++^^@@==@@))++++&&**##))..&&##++**++==@@++,,>>&&",
"++^^@@==@@))++++&&**##))..&&##++**++==@@++,,>>&&",
"++))@@==;;@@**....**//))..$$''////$$==@@++//&&%%",
"++))@@==;;@@**....**//))..$$''////$$==@@++//&&%%",
"++))@@++++$$''++****''##**@@''//~~((//$$&&--++%%",
"++))@@++++$$''++****''##**@@''//~~((//$$&&--++%%",
"++++@@==..,,,,@@..****##>>====$$$$$$$$$$&&&&++&&",
"++++@@==..,,,,@@..****##>>====$$$$$$$$$$&&&&++&&",
"++++@@++^^^^__::^^,,**..,,^^^^<<[[::++$$&&&&>>$$",
"++++@@++^^^^__::^^,,**..,,^^^^<<[[::++$$&&&&>>$$",
"  ++@@==::}}||::++%%$$$$%%[[[[11::%%$$>>$$&&$$  ",
"  ++@@==::}}||::++%%$$$$%%[[[[11::%%$$>>$$&&$$  ",
"  ++@@##==%%%%$$22//3344//22$$%%==;;{{''$$@@++  ",
"  ++@@##==%%%%$$22//3344//22$$%%==;;{{''$$@@++  ",
"  ++@@//5555{{44((((3333//((44{{5555//--@@@@++  ",
"  ++@@//5555{{44((((3333//((44{{5555//--@@@@++  ",
"    @@//((3344~~;;//55{{//$$>>4433''==$$@@@@    ",
"    @@//((3344~~;;//55{{//$$>>4433''==$$@@@@    ",
"    @@##~~44~~>>@@--((~~>>@@--~~44''$$--@@%%    ",
"    @@##~~44~~>>@@--((~~>>@@--~~44''$$--@@%%    ",
"    ..--////;;}}66@@////@@77}};;//''@@$$..      ",
"    ..--////;;}}66@@////@@77}};;//''@@$$..      ",
"    ,,$$>>2288>>9977++++0000>>8822>>@@%%..      ",
"    ,,$$>>2288>>9977++++0000>>8822>>@@%%..      ",
"      &&>>8811aa::bb++++ccccaa1188>>%%..        ",
"      &&>>8811aa::bb++++ccccaa1188>>%%..        ",
"      ..==##8888[[11dddd11[[8888##==..          ",
"      ..==##8888[[11dddd11[[8888##==..          ",
"        %%##>>~~<<<<....7777~~~~##..            ",
"        %%##>>~~<<<<....7777~~~~##..            ",
"          %%-->>[[eeff44eeee;;--%%              ",
"          %%-->>[[eeff44eeee;;--%%              ",
"            ..--ccgg////hhhh--..                ",
"            ..--ccgg////hhhh--..                "};
