/* XPM */
static char * ouch_2_xpm[] = {
"58 62 47 1",
" 	c None",
".	c #4B371B",
"+	c #5F4323",
"@	c #6B4727",
"#	c #774F2B",
"$	c #332B13",
"%	c #533F1F",
"&	c #8F5F37",
"*	c #9B633B",
"=	c #A36B3F",
"-	c #AB6F43",
";	c #BF7B4B",
">	c #B37347",
",	c #875733",
"'	c #2B230F",
")	c #CB7F4F",
"!	c #CF8353",
"~	c #3F2F17",
"{	c #000000",
"]	c #FFB383",
"^	c #E79B6B",
"/	c #D78B5B",
"(	c #DF9363",
"_	c #473323",
":	c #A73F3F",
"<	c #DB7B7B",
"[	c #F7AB7B",
"}	c #9B3333",
"|	c #FFBB93",
"1	c #FFB37B",
"2	c #EFA373",
"3	c #FFD7BB",
"4	c #B34F4F",
"5	c #9F8363",
"6	c #7F532F",
"7	c #972F2F",
"8	c #5F0707",
"9	c #5B0707",
"0	c #771717",
"a	c #6B0F0F",
"b	c #2F2F2F",
"c	c #5B5B5B",
"d	c #777777",
"e	c #8B0000",
"f	c #A70000",
"g	c #7F1B1B",
"h	c #8B2323",
"               ..++++@@############@@++++..               ",
"               ..++++@@############@@++++..               ",
"           $$++%%++@@##&&********&&##@@++%%++$$           ",
"           $$++%%++@@##&&********&&##@@++%%++$$           ",
"         $$%%@@&&&&====----;;>>--**&&,,####@@..$$         ",
"         $$%%@@&&&&====----;;>>--**&&,,####@@..$$         ",
"         $$..&&&&====>>>>;;;;;;;;>>==&&&&,,@@..''         ",
"         $$..&&&&====>>>>;;;;;;;;>>==&&&&,,@@..''         ",
"       ''$$%%++##&&**;;))!!==>>******&&&&####%%''''       ",
"       ''$$%%++##&&**;;))!!==>>******&&&&####%%''''       ",
"       ''''$$##,,##&&**>>,,--&&==########++%%$$$$''       ",
"       ''''$$##,,##&&**>>,,--&&==########++%%$$$$''       ",
"       ''''''++##%%##&&&&##@@####++$$..++..$$''$$''       ",
"       ''''''++##%%##&&&&##@@####++$$..++..$$''$$''       ",
"       ''$$$$..%%..@@&&,,$$++####..$$..~~++''$$$$''       ",
"       ''$$$$..%%..@@&&,,$$++####..$$..~~++''$$$$''       ",
"       ''$$''..##..++,,$$@@++##++$$==@@..@@%%....''       ",
"       ''$$''..##..++,,$$@@++##++$$==@@..@@%%....''       ",
"       ''$$++%%##&&$$%%$$%%$$##$$$$@@==&&@@&&%%..''       ",
"       ''$$++%%##&&$$%%$$%%$$##$$$$@@==&&@@&&%%..''       ",
"       ''..++++&&-->>$$$$@@==$$%%;;@@====,,--&&..''       ",
"       ''..++++&&-->>$$$$@@==$$%%;;@@====,,--&&..''       ",
"       ''..####**>>>>>>$$==,,&&&&**==&&>>>>,,**..''       ",
"       ''..####**>>>>>>$$==,,&&&&**==&&>>>>,,**..''       ",
"     >>{{..&&@@@@,,!!]]^^//>>>>!!^^((==%%@@@@&&..{{>>     ",
"     >>{{..&&@@@@,,!!]]^^//>>>>!!^^((==%%@@@@&&..{{>>     ",
"     >>@@..##((--&&~~@@,,((^^!!^^>>@@~~&&--((##__@@>>     ",
"     >>@@..##((--&&~~@@,,((^^!!^^>>@@~~&&--((##__@@>>     ",
"     &&@@++@@&&{{::<<~~..&&((;;&&..~~::<<{{&&@@,,@@&&     ",
"     &&@@++@@&&{{::<<~~..&&((;;&&..~~::<<{{&&@@,,@@&&     ",
"     @@++++,,%%::..{{<<{{%%==[[%%{{::{{..<<%%,,,,++@@     ",
"     @@++++,,%%::..{{<<{{%%==[[%%{{::{{..<<%%,,,,++@@     ",
"     ,,++,,!!>>++}}}}!![[&&;;^^&&[[!!}}}}++>>!!,,++,,     ",
"     ,,++,,!!>>++}}}}!![[&&;;^^&&[[!!}}}}++>>!!,,++,,     ",
"     &&++&&!!^^>>++,,!!||//!!11//||!!,,++>>^^!!&&++&&     ",
"     &&++&&!!^^>>++,,!!||//!!11//||!!,,++>>^^!!&&++&&     ",
"       ++&&;;^^[[[[||22[[//1133//[[[[22||[[^^;;&&++       ",
"       ++&&;;^^[[[[||22[[//1133//[[[[22||[[^^;;&&++       ",
"       ++&&&&>>--^^!!44--**5555**--44!!^^--;;&&&&++       ",
"       ++&&&&>>--^^!!44--**5555**--44!!^^--;;&&&&++       ",
"       ++==6666==^^&&7788##,,,,##9977&&^^==6666==++       ",
"       ++==6666==^^&&7788##,,,,##9977&&^^==6666==++       ",
"         &&&&,,==//@@>>0099@@@@aaaa>>@@//==,,==&&         ",
"         &&&&,,==//@@>>0099@@@@aaaa>>@@//==,,==&&         ",
"         66==66==!!##>>7777////7777>>##!!==66;;66         ",
"         66==66==!!##>>7777////7777>>##!!==66;;66         ",
"           &&66**;;**//}}########}}//**;;**66==           ",
"           &&66**;;**//}}########}}//**;;**66==           ",
"           ,,66,,;;**>>bbccddddccbb>>**;;,,66,,           ",
"           ,,66,,;;**>>bbccddddccbb>>**;;,,66,,           ",
"           ##6666==--**{{{{{{{{{{{{**--==##66##           ",
"           ##6666==--**{{{{{{{{{{{{**--==##66##           ",
"             66##&&;;,,eeffffffffee,,;;&&##66             ",
"             66##&&;;,,eeffffffffee,,;;&&##66             ",
"             ####,,!!==ccggggeeeecc==!!,,####             ",
"             ####,,!!==ccggggeeeecc==!!,,####             ",
"               ##66>>--&&ccddddcc&&-->>66##               ",
"               ##66>>--&&ccddddcc&&-->>66##               ",
"                 ##&&--hhhh66669999--&&##                 ",
"                 ##&&--hhhh66669999--&&##                 ",
"                   ##**}}44((((4444**##                   ",
"                   ##**}}44((((4444**##                   "};
