/* XPM */
static char * straight_5_xpm[] = {
"48 58 41 1",
" 	c None",
".	c #4B371B",
"+	c #5F4323",
"@	c #6B4727",
"#	c #774F2B",
"$	c #332B13",
"%	c #533F1F",
"&	c #7F532F",
"*	c #8F5F37",
"=	c #AB6F43",
"-	c #BF7B4B",
";	c #CF8353",
">	c #9B633B",
",	c #CB7F4F",
"'	c #B37347",
")	c #875733",
"!	c #A36B3F",
"~	c #2B230F",
"{	c #3F2F17",
"]	c #EFA373",
"^	c #E79B6B",
"/	c #FFBB93",
"(	c #D78B5B",
"_	c #DF9363",
":	c #473323",
"<	c #675333",
"[	c #6B6B6B",
"}	c #000000",
"|	c #3B3B3B",
"1	c #B3B3B3",
"2	c #EB9797",
"3	c #BB5757",
"4	c #DB7B7B",
"5	c #FFA35B",
"6	c #FFB37B",
"7	c #FFC7A7",
"8	c #FFD7BB",
"9	c #F7AB7B",
"0	c #9F8363",
"a	c #FFBF9B",
"b	c #9B5B13",
"          ..++++++@@##########@@++++..          ",
"          ..++++++@@##########@@++++..          ",
"      $$++%%&&**==--;;;;;;--==>>##++%%++$$      ",
"      $$++%%&&**==--;;;;;;--==>>##++%%++$$      ",
"    $$++##**==--,,;;--''>>>>>>****####%%..$$    ",
"    $$++##**==--,,;;--''>>>>>>****####%%..$$    ",
"    $$##))##**>>''))==**!!########++%%$$$$~~    ",
"    $$##))##**>>''))==**!!########++%%$$$$~~    ",
"  ~~{{++##++**>>********..**++..++..$$~~~~~~~~  ",
"  ~~{{++##++**>>********..**++..++..$$~~~~~~~~  ",
"  ~~{{..%%++**%%>>@@@@**@@..@@..{{++~~$$$${{~~  ",
"  ~~{{..%%++**%%>>@@@@**@@..@@..{{++~~$$$${{~~  ",
"  ~~....####%%**%%@@##@@@@******))))@@..{{..~~  ",
"  ~~....####%%**%%@@##@@@@******))))@@..{{..~~  ",
"  ~~..%%##**##%%!!%%##**!!''>>!!******@@....~~  ",
"  ~~..%%##**##%%!!%%##**!!''>>!!******@@....~~  ",
"  ~~..++**==''!!!!''''''''''''!!!!''==**%%..~~  ",
"  ~~..++**==''!!!!''''''''''''!!!!''==**%%..~~  ",
"  ~~..##>>;;,,,,''!!========!!'',,,,;;>>++..~~  ",
"  ~~..##>>;;,,,,''!!========!!'',,,,;;>>++..~~  ",
"  ~~..##>>;;]]^^;;--!!****!!--;;^^]];;>>##..~~  ",
"  ~~..##>>;;]]^^;;--!!****!!--;;^^]];;>>##..~~  ",
"  ~~..##''^^////^^^^;;((((;;^^^^////^^''##..~~  ",
"  ~~..##''^^////^^^^;;((((;;^^^^////^^''##..~~  ",
"''@@..##@@@@%%!!__''##''''##''__!!%%@@@@##..@@''",
"''@@..##@@@@%%!!__''##''''##''__!!%%@@@@##..@@''",
"''@@::**==++{{{{{{..{{****{{..{{{{{{++==**::@@''",
"''@@::**==++{{{{{{..{{****{{..{{{{{{++==**::@@''",
"**@@<<''##[[}}[[||}}%%((((%%}}[[}}[[11##''<<@@**",
"**@@<<''##[[}}[[||}}%%((((%%}}[[}}[[11##''<<@@**",
"@@++))''**==2233@@++**;;^^**++@@3322==**''))++@@",
"@@++))''**==2233@@++**;;^^**++@@3322==**''))++@@",
"))++))44((--==**==,,((5566((,,==**==--((44))++))",
"))++))44((--==**==,,((5566((,,==**==--((44))++))",
"**++**;;__]]__,,55//^^5566^^//55,,__]]__;;**++**",
"**++**;;__]]__,,55//^^5566^^//55,,__]]__;;**++**",
"  ++))!!==--((5577__((6688((__7755((--==!!))++  ",
"  ++))!!==--((5577__((6688((__7755((--==!!))++  ",
"  ++##>>!!--]]99((==>>0000>>==((99]]--!!>>##++  ",
"  ++##>>!!--]]99((==>>0000>>==((99]]--!!>>##++  ",
"    ##''>>((//^^--%%##))))##%%--^^//((>>''##    ",
"    ##''>>((//^^--%%##))))##%%--^^//((>>''##    ",
"    ++,,>>^^99;;;;((--!!!!--((;;;;99^^>>,,++    ",
"    ++,,>>^^99;;;;((--!!!!--((;;;;99^^>>,,++    ",
"    %%==!!((^^;;((99aa____aa99((;;^^((!!==%%    ",
"    %%==!!((^^;;((99aa____aa99((;;^^((!!==%%    ",
"      ))==,,((**##bbbbbbbbbbbb##**((,,==))      ",
"      ))==,,((**##bbbbbbbbbbbb##**((,,==))      ",
"      %%**'',,,,,,((^^5555^^((,,,,,,''**%%      ",
"      %%**'',,,,,,((^^5555^^((,,,,,,''**%%      ",
"        @@==;;__,,==**&&&&**==,,__;;==@@        ",
"        @@==;;__,,==**&&&&**==,,__;;==@@        ",
"          @@==;;__,,,,^^^^,,,,__;;==@@          ",
"          @@==;;__,,,,^^^^,,,,__;;==@@          ",
"            %%))''((^^aaaa^^((''))%%            ",
"            %%))''((^^aaaa^^((''))%%            ",
"                @@**!!!!!!!!**@@                ",
"                @@**!!!!!!!!**@@                "};
