/* XPM */
static char * wicked_2_xpm[] = {
"58 62 46 1",
" 	c None",
".	c #4B371B",
"+	c #5F4323",
"@	c #6B4727",
"#	c #774F2B",
"$	c #332B13",
"%	c #533F1F",
"&	c #8F5F37",
"*	c #9B633B",
"=	c #A36B3F",
"-	c #AB6F43",
";	c #BF7B4B",
">	c #B37347",
",	c #875733",
"'	c #2B230F",
")	c #CB7F4F",
"!	c #CF8353",
"~	c #3F2F17",
"{	c #000000",
"]	c #EFA373",
"^	c #E79B6B",
"/	c #FFBB93",
"(	c #FFB383",
"_	c #DF9363",
":	c #F7AB7B",
"<	c #E78F8F",
"[	c #8F2B2B",
"}	c #C76363",
"|	c #972F2F",
"1	c #D78B5B",
"2	c #CB6B6B",
"3	c #BB5757",
"4	c #FFC7A7",
"5	c #3B3B3B",
"6	c #5B0707",
"7	c #670B0B",
"8	c #636363",
"9	c #4F4F4F",
"0	c #777777",
"a	c #7F7F7F",
"b	c #9F9F9F",
"c	c #ABABAB",
"d	c #DBDBDB",
"e	c #9B3333",
"f	c #AF4747",
"g	c #FFBF9B",
"                                                          ",
"               ..++++@@############@@++++..               ",
"               ..++++@@############@@++++..               ",
"           $$++%%++@@##&&********&&##@@++%%++$$           ",
"           $$++%%++@@##&&********&&##@@++%%++$$           ",
"         $$%%@@&&&&====----;;>>--**&&,,####@@..$$         ",
"         $$%%@@&&&&====----;;>>--**&&,,####@@..$$         ",
"         $$..&&&&====>>>>;;;;;;;;>>==&&&&,,@@..''         ",
"         $$..&&&&====>>>>;;;;;;;;>>==&&&&,,@@..''         ",
"       ''$$%%++##&&**;;))!!==>>******&&&&####%%''''       ",
"       ''$$%%++##&&**;;))!!==>>******&&&&####%%''''       ",
"       ''''$$##,,##&&**>>,,--&&==########++%%$$$$''       ",
"       ''''$$##,,##&&**>>,,--&&==########++%%$$$$''       ",
"       ''''''++##++%%##&&&&##@@####++$$++..$$''$$''       ",
"       ''''''++##++%%##&&&&##@@####++$$++..$$''$$''       ",
"       ''$$$$..%%++..@@&&,,$$++####..$$~~++''$$$$''       ",
"       ''$$$$..%%++..@@&&,,$$++####..$$~~++''$$$$''       ",
"       ''$$''..##,,..++,,$$%%++##++$$@@..@@%%....''       ",
"       ''$$''..##,,..++,,$$%%++##++$$@@..@@%%....''       ",
"       ''$$++%%##&&--$$%%$$**$$##$$@@==&&@@&&%%..''       ",
"       ''$$++%%##&&--$$%%$$**$$##$$@@==&&@@&&%%..''       ",
"       ''..++++&&-->>,,$$$$==;;$$;;@@====,,--&&..''       ",
"       ''..++++&&-->>,,$$$$==;;$$;;@@====,,--&&..''       ",
"       ''..####**>>>>>>,,$$,,&&&&**==&&>>>>,,**..''       ",
"       ''..####**>>>>>>,,$$,,&&&&**==&&>>>>,,**..''       ",
"     >>{{..####**!!]]^^!!;;==&&&&==;;!!^^]]!!##~~{{>>     ",
"     >>{{..####**!!]]^^!!;;==&&&&==;;!!^^]]!!##~~{{>>     ",
"     >>~~..&&>>^^////((^^!!====!!^^((////^^>>&&..~~>>     ",
"     >>~~..&&>>^^////((^^!!====!!^^((////^^>>&&..~~>>     ",
"     &&~~..>>%%%%====__//>>!!::>>//__====%%%%>>..~~&&     ",
"     &&~~..>>%%%%====__//>>!!::>>//__====%%%%>>..~~&&     ",
"     @@++,,&&~~~~~~~~@@@@..====..@@@@~~~~~~~~&&,,++@@     ",
"     @@++,,&&~~~~~~~~@@@@..====..@@@@~~~~~~~~&&,,++@@     ",
"     ,,++**^^##<<[[{{{{{{..%%%%..{{{{{{[[<<##^^**++,,     ",
"     ,,++**^^##<<[[{{{{{{..%%%%..{{{{{{[[<<##^^**++,,     ",
"     &&++))::^^--}}||||++@@----@@++||||}}--^^::))++&&     ",
"     &&++))::^^--}}||||++@@----@@++||||}}--^^::))++&&     ",
"       ++))::::^^^^^^::11--::::--11::^^^^^^::::))++       ",
"       ++))::::^^^^^^::11--::::--11::^^^^^^::::))++       ",
"       ,,;;11^^2233&&++--11444411--++&&;;222211)),,       ",
"       ,,;;11^^2233&&++--11444411--++&&;;222211)),,       ",
"       ,,--))22||55@@++||==^^^^==66++@@55||22));;         ",
"       ,,--))22||55@@++||==^^^^==66++@@55||22));;         ",
"         **))2233||55&&&&||,,,,||77&&55||3322))--         ",
"         **))2233||55&&&&||,,,,||77&&55||3322))--         ",
"         @@))112233889900aabbbbaa009988>>3311==**         ",
"         @@))112233889900aabbbbaa009988>>3311==**         ",
"           ==))11>>118888ccddddcc888811--11))**           ",
"           ==))11>>118888ccddddcc888811--11))**           ",
"           @@--))>>--118800aaaa008811-->>))--@@           ",
"           @@--))>>--118800aaaa008811-->>))--@@           ",
"             @@--))))&&eeff2222ffee&&))))--@@             ",
"             @@--))))&&eeff2222ffee&&))))--@@             ",
"               @@!!__))ff++~~~~++||))__!!@@               ",
"               @@!!__))ff++~~~~++||))__!!@@               ",
"                 @@--__ffff,,,,ff33__--@@                 ",
"                 @@--__ffff,,,,ff33__--@@                 ",
"                   @@&&ff||ggggff33&&@@                   ",
"                   @@&&ff||ggggff33&&@@                   ",
"                       ++||>>>>&&++                       ",
"                       ++||>>>>&&++                       ",
"                                                          "};
