/* XPM */
static char * wicked_5_xpm[] = {
"58 62 38 1",
" 	c None",
".	c #4B371B",
"+	c #5F4323",
"@	c #6B4727",
"#	c #774F2B",
"$	c #332B13",
"%	c #533F1F",
"&	c #8F5F37",
"*	c #9B633B",
"=	c #875733",
"-	c #2B230F",
";	c #A36B3F",
">	c #3F2F17",
",	c #AB6F43",
"'	c #B37347",
")	c #CF8353",
"!	c #000000",
"~	c #EFA373",
"{	c #E79B6B",
"]	c #BF7B4B",
"^	c #FFBB93",
"/	c #FFB383",
"(	c #DF9363",
"_	c #7F7F7F",
":	c #000083",
"<	c #575757",
"[	c #CB7F4F",
"}	c #F7AB7B",
"|	c #D78B5B",
"1	c #FFC7A7",
"2	c #3B3B3B",
"3	c #636363",
"4	c #4F4F4F",
"5	c #777777",
"6	c #9F9F9F",
"7	c #ABABAB",
"8	c #DBDBDB",
"9	c #FFBF9B",
"                                                          ",
"               ..++++@@############@@++++..               ",
"               ..++++@@############@@++++..               ",
"           $$++%%++@@##&&********&&##@@++%%++$$           ",
"           $$++%%++@@##&&********&&##@@++%%++$$           ",
"         $$..@@####==&&************&&######@@..$$         ",
"         $$..@@####==&&************&&######@@..$$         ",
"         $$..@@======&&************&&######@@..--         ",
"         $$..@@======&&************&&######@@..--         ",
"       --$$++##&&********==********&&&&####@@..----       ",
"       --$$++##&&********==********&&&&####@@..----       ",
"       ----##==##&&**======&&;;########++%%++$$$$--       ",
"       ----##==##&&**======&&;;########++%%++$$$$--       ",
"       ----++##++&&**&&&&&&&&..&&++..++..$$..--$$--       ",
"       ----++##++&&**&&&&&&&&..&&++..++..$$..--$$--       ",
"       --$$..%%++&&%%**@@@@&&@@..@@..>>++--$$$$$$--       ",
"       --$$..%%++&&%%**@@@@&&@@..@@..>>++--$$$$$$--       ",
"       --$$..####%%&&%%@@##@@@@&&&&&&====@@%%--..--       ",
"       --$$..####%%&&%%@@##@@@@&&&&&&====@@%%--..--       ",
"       --$$%%##,,##%%;;%%##&&;;''**;;&&&&&&##++..--       ",
"       --$$%%##,,##%%;;%%##&&;;''**;;&&&&&&##++..--       ",
"       --..++&&,,'';;;;''********'';;;;'',,&&++>>--       ",
"       --..++&&,,'';;;;''********'';;;;'',,&&++>>--       ",
"       --..##**))))));;**##====##**;;))))))**##..--       ",
"       --..##**))))));;**##====##**;;))))))**##..--       ",
"     ''!!..##**))~~{{))]];;####;;]])){{~~))**##..!!''     ",
"     ''!!..##**))~~{{))]];;####;;]])){{~~))**##..!!''     ",
"     ''>>..&&''{{^^^^//{{));;;;)){{//^^^^{{''&&..>>''     ",
"     ''>>..&&''{{^^^^//{{));;;;)){{//^^^^{{''&&..>>''     ",
"     &&>>..''%%%%%%;;((^^''))//''^^((;;%%%%%%''..>>&&     ",
"     &&>>..''%%%%%%;;((^^''))//''^^((;;%%%%%%''..>>&&     ",
"     @@++==&&>>>>>>@@''@@..;;;;..@@''@@>>>>>>&&==++@@     ",
"     @@++==&&>>>>>>@@''@@..;;;;..@@''@@>>>>>>&&==++@@     ",
"     ==++**{{##__::!!<<!!..%%%%..!!<<!!::__##{{**++==     ",
"     ==++**{{##__::!!<<!!..%%%%..!!<<!!::__##{{**++==     ",
"     &&++[[}}{{,,~~,,**++@@,,,,@@++**,,~~,,{{}}[[++&&     ",
"     &&++[[}}{{,,~~,,**++@@,,,,@@++**,,~~,,{{}}[[++&&     ",
"       ++[[}}}}{{{{{{}}||,,}}}},,||}}{{{{{{}}}}[[++       ",
"       ++[[}}}}{{{{{{}}||,,}}}},,||}}{{{{{{}}}}[[++       ",
"       ==]]||{{))]]&&++,,||1111||,,++&&]])){{||]]==       ",
"       ==]]||{{))]]&&++,,||1111||,,++&&]])){{||]]==       ",
"       ==,,[[{{;;22@@++##;;{{{{;;##++@@22;;{{[[,,==       ",
"       ==,,[[{{;;22@@++##;;{{{{;;##++@@22;;{{[[,,==       ",
"         **[[||,,@@22&&]]========]]&&22@@,,||[[**         ",
"         **[[||,,@@22&&]]========]]&&22@@,,||[[**         ",
"         @@[[||[[**334455__6666__554433**[[||[[@@         ",
"         @@[[||[[**334455__6666__554433**[[||[[@@         ",
"           ;;[[||''||3333778888773333||''||[[;;           ",
"           ;;[[||''||3333778888773333||''||[[;;           ",
"           @@,,[['',,||3355____5533||,,''[[,,@@           ",
"           @@,,[['',,||3355____5533||,,''[[,,@@           ",
"             @@,,[[[[&&''||^^^^||''&&[[[[,,@@             ",
"             @@,,[[[[&&''||^^^^||''&&[[[[,,@@             ",
"               @@))(([[&&++>>>>++&&[[(())@@               ",
"               @@))(([[&&++>>>>++&&[[(())@@               ",
"                 @@,,(([[,,====,,[[((,,@@                 ",
"                 @@,,(([[,,====,,[[((,,@@                 ",
"                   @@&&||{{9999{{||&&@@                   ",
"                   @@&&||{{9999{{||&&@@                   ",
"                       ++&&''''&&++                       ",
"                       ++&&''''&&++                       ",
"                                                          "};
