/* XPM */
static char * attacked_straight_2_xpm[] = {
"58 62 49 1",
" 	c None",
".	c #4B371B",
"+	c #5F4323",
"@	c #6B4727",
"#	c #774F2B",
"$	c #332B13",
"%	c #533F1F",
"&	c #8F5F37",
"*	c #9B633B",
"=	c #A36B3F",
"-	c #AB6F43",
";	c #BF7B4B",
">	c #B37347",
",	c #875733",
"'	c #2B230F",
")	c #CB7F4F",
"!	c #CF8353",
"~	c #3F2F17",
"{	c #000000",
"]	c #EFA373",
"^	c #E79B6B",
"/	c #FFBB93",
"(	c #FFB383",
"_	c #DF9363",
":	c #F7AB7B",
"<	c #B34F4F",
"[	c #7F1B1B",
"}	c #8F2B2B",
"|	c #D78B5B",
"1	c #FFC7A7",
"2	c #8B2323",
"3	c #BB5757",
"4	c #9B3333",
"5	c #972F2F",
"6	c #272727",
"7	c #434343",
"8	c #636363",
"9	c #777777",
"0	c #979797",
"a	c #CBCBCB",
"b	c #DBDBDB",
"c	c #A73F3F",
"d	c #C76363",
"e	c #CB6B6B",
"f	c #7F532F",
"g	c #A33B3B",
"h	c #BF5B5B",
"i	c #FFBF9B",
"j	c #AF4747",
"                                                          ",
"               ..++++@@############@@++++..               ",
"               ..++++@@############@@++++..               ",
"           $$++%%++@@##&&********&&##@@++%%++$$           ",
"           $$++%%++@@##&&********&&##@@++%%++$$           ",
"         $$%%@@&&&&====----;;>>--**&&,,####@@..$$         ",
"         $$%%@@&&&&====----;;>>--**&&,,####@@..$$         ",
"         $$..&&&&====>>>>;;;;;;;;>>==&&&&,,@@..''         ",
"         $$..&&&&====>>>>;;;;;;;;>>==&&&&,,@@..''         ",
"       ''$$%%++##&&**;;))!!==>>******&&&&####%%''''       ",
"       ''$$%%++##&&**;;))!!==>>******&&&&####%%''''       ",
"       ''''$$##,,##&&**>>,,--&&==########++%%$$$$''       ",
"       ''''$$##,,##&&**>>,,--&&==########++%%$$$$''       ",
"       ''''''++##++%%##&&&&##@@####++$$++..$$''$$''       ",
"       ''''''++##++%%##&&&&##@@####++$$++..$$''$$''       ",
"       ''$$$$..%%++..@@&&,,$$++####..$$~~++''$$$$''       ",
"       ''$$$$..%%++..@@&&,,$$++####..$$~~++''$$$$''       ",
"       ''$$''..##,,..++,,$$%%++##++$$@@..@@%%....''       ",
"       ''$$''..##,,..++,,$$%%++##++$$@@..@@%%....''       ",
"       ''$$++%%##&&--$$%%$$**$$##$$@@==&&@@&&%%..''       ",
"       ''$$++%%##&&--$$%%$$**$$##$$@@==&&@@&&%%..''       ",
"       ''..++++&&-->>,,$$$$==;;$$;;@@====,,--&&..''       ",
"       ''..++++&&-->>,,$$$$==;;$$;;@@====,,--&&..''       ",
"       ''..####**>>>>>>,,$$,,&&&&**==&&>>>>,,**..''       ",
"       ''..####**>>>>>>,,$$,,&&&&**==&&>>>>,,**..''       ",
"     >>{{..##**!!]]^^!!;;==####==;;!!^^]]!!**##~~{{>>     ",
"     >>{{..##**!!]]^^!!;;==####==;;!!^^]]!!**##~~{{>>     ",
"     >>~~..&&>>^^////((^^!!====!!^^((////^^>>&&..~~>>     ",
"     >>~~..&&>>^^////((^^!!====!!^^((////^^>>&&..~~>>     ",
"     &&~~..&&%%{{%%==__//>>!!::>>//__==%%{{%%&&..~~&&     ",
"     &&~~..&&%%{{%%==__//>>!!::>>//__==%%{{%%&&..~~&&     ",
"     @@++++++~~++~~@@>>@@..====..@@>>@@~~++~~++++++@@     ",
"     @@++++++~~++~~@@>>@@..====..@@>>@@~~++~~++++++@@     ",
"     ,,++++++''<<{{{{[[{{..%%%%..{{[[{{{{<<''++++++,,     ",
"     ,,++++++''<<{{{{[[{{..%%%%..{{[[{{{{<<''++++++,,     ",
"     &&++,,>>&&--<<}}@@++@@----@@++@@}}<<--&&>>,,++&&     ",
"     &&++,,>>&&--<<}}@@++@@----@@++@@}}<<--&&>>,,++&&     ",
"       ++,,||||==||^^::||--::::--||::^^||==||||,,++       ",
"       ++,,||||==||^^::||--::::--||::^^||==||||,,++       ",
"       ++##==--;;//||==##^^////^^##==||//;;--==##++       ",
"       ++##==--;;//||==##^^////^^##==||//;;--==##++       ",
"         ##&&&&||::==&&==||1111||==&&==::||&&&&##         ",
"         ##&&&&||::==&&==||1111||==&&==::||&&&&##         ",
"         ##==**^^^^==!!22==^^^^==22!!==^^^^**==##         ",
"         ##==**^^^^==!!22==^^^^==22!!==^^^^**==##         ",
"         ++))&&||^^##3344!!>>>>!!4433##^^||&&))++         ",
"         ++))&&||^^##3344!!>>>>!!4433##^^||&&))++         ",
"           --==))335566778899998877665533))==--           ",
"           --==))335566778899998877665533))==--           ",
"           ,,--))33556600aabbbbaa00665533))--,,           ",
"           ,,--))33556600aabbbbaa00665533))--,,           ",
"             &&>>))==cc33ddeeeedd33cc==))>>&&             ",
"             &&>>))==cc33ddeeeedd33cc==))>>&&             ",
"             @@**!!==&&}}}}ffff}}}}&&==!!**@@             ",
"             @@**!!==&&}}}}ffff}}}}&&==!!**@@             ",
"               @@==!!&&gg44^^^^4444&&!!==@@               ",
"               @@==!!&&gg44^^^^4444&&!!==@@               ",
"                 %%==>>hhhhiiiihhhh>>==%%                 ",
"                 %%==>>hhhhiiiihhhh>>==%%                 ",
"                     &&jjjj>>>>jjjj&&                     ",
"                     &&jjjj>>>>jjjj&&                     ",
"                                                          "};
