/* XPM */
static char * attacked_straight_5_xpm[] = {
"58 62 39 1",
" 	c None",
".	c #4B371B",
"+	c #5F4323",
"@	c #6B4727",
"#	c #774F2B",
"$	c #332B13",
"%	c #533F1F",
"&	c #8F5F37",
"*	c #9B633B",
"=	c #875733",
"-	c #2B230F",
";	c #A36B3F",
">	c #3F2F17",
",	c #AB6F43",
"'	c #B37347",
")	c #CF8353",
"!	c #CB7F4F",
"~	c #000000",
"{	c #EFA373",
"]	c #E79B6B",
"^	c #BF7B4B",
"/	c #FFBB93",
"(	c #FFB383",
"_	c #DF9363",
":	c #F7AB7B",
"<	c #7F7F7F",
"[	c #000083",
"}	c #575757",
"|	c #D78B5B",
"1	c #FFC7A7",
"2	c #272727",
"3	c #434343",
"4	c #636363",
"5	c #777777",
"6	c #979797",
"7	c #CBCBCB",
"8	c #DBDBDB",
"9	c #7F532F",
"0	c #FFBF9B",
"                                                          ",
"               ..++++@@############@@++++..               ",
"               ..++++@@############@@++++..               ",
"           $$++%%++@@##&&********&&##@@++%%++$$           ",
"           $$++%%++@@##&&********&&##@@++%%++$$           ",
"         $$..@@######&&************&&######@@..$$         ",
"         $$..@@######&&************&&######@@..$$         ",
"         $$..@@####==&&************&&######@@..--         ",
"         $$..@@####==&&************&&######@@..--         ",
"       --$$..@@======&&************&&######@@..----       ",
"       --$$..@@======&&************&&######@@..----       ",
"       ----++##&&********==********&&&&####++$$$$--       ",
"       ----++##&&********==********&&&&####++$$$$--       ",
"       ----##==##&&**======&&;;########++%%..--$$--       ",
"       ----##==##&&**======&&;;########++%%..--$$--       ",
"       --$$++##++&&**&&&&&&&&..&&++..++..$$$$$$$$--       ",
"       --$$++##++&&**&&&&&&&&..&&++..++..$$$$$$$$--       ",
"       --$$..%%++&&%%**@@@@&&@@..@@..>>++--%%--..--       ",
"       --$$..%%++&&%%**@@@@&&@@..@@..>>++--%%--..--       ",
"       --$$..==##%%&&%%@@##@@@@&&&&&&====@@##++..--       ",
"       --$$..==##%%&&%%@@##@@@@&&&&&&====@@##++..--       ",
"       --..%%;;,,##%%;;%%##&&;;''**;;&&&&&&&&++..--       ",
"       --..%%;;,,##%%;;%%##&&;;''**;;&&&&&&&&++..--       ",
"       --..##,,))!!!!'';;,,,,,,,,;;''!!!!))**##..--       ",
"       --..##,,))!!!!'';;,,,,,,,,;;''!!!!))**##..--       ",
"     ''~~..##'')){{]]))^^;;&&&&;;^^))]]{{))**##..~~''     ",
"     ''~~..##'')){{]]))^^;;&&&&;;^^))]]{{))**##..~~''     ",
"     ''>>..&&'']]////((]]));;;;))]]((////]]''&&..>>''     ",
"     ''>>..&&'']]////((]]));;;;))]]((////]]''&&..>>''     ",
"     &&>>..&&%%~~%%;;__//''))::''//__;;%%~~%%&&..>>&&     ",
"     &&>>..&&%%~~%%;;__//''))::''//__;;%%~~%%&&..>>&&     ",
"     @@++++++>>++>>@@''@@..;;;;..@@''@@>>++>>++++++@@     ",
"     @@++++++>>++>>@@''@@..;;;;..@@''@@>>++>>++++++@@     ",
"     ==++++++--<<[[~~}}~~..%%%%..~~}}~~[[<<--++++++==     ",
"     ==++++++--<<[[~~}}~~..%%%%..~~}}~~[[<<--++++++==     ",
"     &&++==''&&,,{{,,@@++@@,,,,@@++@@,,{{,,&&''==++&&     ",
"     &&++==''&&,,{{,,@@++@@,,,,@@++@@,,{{,,&&''==++&&     ",
"       ++==||||;;||]]::||,,::::,,||::]]||;;||||==++       ",
"       ++==||||;;||]]::||,,::::,,||::]]||;;||||==++       ",
"       ++##;;,,^^//||;;##]]////]]##;;||//^^,,;;##++       ",
"       ++##;;,,^^//||;;##]]////]]##;;||//^^,,;;##++       ",
"         ##&&&&||::;;&&;;||1111||;;&&;;::||&&&&##         ",
"         ##&&&&||::;;&&;;||1111||;;&&;;::||&&&&##         ",
"         ##;;**]]]];;))__;;]]]];;__));;]]]]**;;##         ",
"         ##;;**]]]];;))__;;]]]];;__));;]]]]**;;##         ",
"         ++!!&&||]]##''!!))''''))!!''##]]||&&!!++         ",
"         ++!!&&||]]##''!!))''''))!!''##]]||&&!!++         ",
"           ,,;;!!||++2233445555443322++||!!;;,,           ",
"           ,,;;!!||++2233445555443322++||!!;;,,           ",
"           ==,,!!||##2266778888776622##||!!,,==           ",
"           ==,,!!||##2266778888776622##||!!,,==           ",
"             &&''!!;;!!||::////::||!!;;!!''&&             ",
"             &&''!!;;!!||::////::||!!;;!!''&&             ",
"             @@**));;&&&&&&9999&&&&&&;;))**@@             ",
"             @@**));;&&&&&&9999&&&&&&;;))**@@             ",
"               @@;;))&&;;!!]]]]!!;;&&));;@@               ",
"               @@;;))&&;;!!]]]]!!;;&&));;@@               ",
"                 %%;;''||]]0000]]||'';;%%                 ",
"                 %%;;''||]]0000]]||'';;%%                 ",
"                     &&''''''''''''&&                     ",
"                     &&''''''''''''&&                     ",
"                                                          "};
