/* XPM */
static char * attacked_right_5_xpm[] = {
"58 62 41 1",
" 	c None",
".	c #2B230F",
"+	c #3F2F17",
"@	c #6B4727",
"#	c #774F2B",
"$	c #5F4323",
"%	c #4B371B",
"&	c #533F1F",
"*	c #7F532F",
"=	c #8F5F37",
"-	c #9B633B",
";	c #AB6F43",
">	c #A36B3F",
",	c #875733",
"'	c #BF7B4B",
")	c #CB7F4F",
"!	c #CF8353",
"~	c #B37347",
"{	c #332B13",
"]	c #D78B5B",
"^	c #EFA373",
"/	c #DF9363",
"(	c #FFBB93",
"_	c #FFC7A7",
":	c #F7AB7B",
"<	c #E79B6B",
"[	c #A7A7A7",
"}	c #000000",
"|	c #DFDFDF",
"1	c #6B6B6B",
"2	c #EB9797",
"3	c #BB5757",
"4	c #FFBF9B",
"5	c #FFB383",
"6	c #FFCFB3",
"7	c #474747",
"8	c #5B5B5B",
"9	c #7F7F7F",
"0	c #ABABAB",
"a	c #FFA35B",
"b	c #FFD3BB",
"                                                          ",
"                ..++@@##########@@$$$$                    ",
"                ..++@@##########@@$$$$                    ",
"            ..%%&&@@**====--;;;;>>--##@@$$%%              ",
"            ..%%&&@@**====--;;;;>>--##@@$$%%              ",
"          ..%%&&$$##,,==--;;''))!!''>>--==$$%%%%          ",
"          ..%%&&$$##,,==--;;''))!!''>>--==$$%%%%          ",
"        ..++%%&&@@@@,,,,====;;''!!!!!!''>>==$$$$$$        ",
"        ..++%%&&@@@@,,,,====;;''!!!!!!''>>==$$$$$$        ",
"      ..++%%%%&&@@@@##==,,,,====~~''~~~~''>>==,,....      ",
"      ..++%%%%&&@@@@##==,,,,====~~''~~~~''>>==,,....      ",
"    ..++%%++%%$$$$$$**@@$$$$,,==--~~====~~%%=={{%%++      ",
"    ..++%%++%%$$$$$$**@@$$$$,,==--~~====~~%%=={{%%++      ",
"    ++%%++{{%%&&&&&&@@&&&&..$$==&&--@@@@==@@%%{{++..      ",
"    ++%%++{{%%&&&&&&@@&&&&..$$==&&--@@@@==@@%%{{++..      ",
"  ..%%++{{++&&%%%%@@&&++++,,##&&==&&@@##@@====**&&{{      ",
"  ..%%++{{++&&%%%%@@&&++++,,##&&==&&@@##@@====**&&{{      ",
"  {{%%{{{{++%%%%&&&&..++==;;==##&&>>&&##==>>~~]]**@@      ",
"  {{%%{{{{++%%%%&&&&..++==;;==##&&>>&&##==>>~~]]**@@      ",
"  ++++{{{{++%%%%&&++%%**;;~~;;~~>>>>~~~~~~~~~~]]]]--      ",
"  ++++{{{{++%%%%&&++%%**;;~~;;~~>>>>~~~~~~~~~~]]]]--      ",
"  ++{{{{++%%%%&&&&%%$$--~~!!]]]]]]!!;;;;;;;;~~]]^^]]%%    ",
"  ++{{{{++%%%%&&&&%%$$--~~!!]]]]]]!!;;;;;;;;~~]]^^]]%%    ",
"  ++{{{{++%%%%&&&&$$##--''//((__((//!!~~~~~~!!//((]]$$    ",
"  ++{{{{++%%%%&&&&$$##--''//((__((//!!~~~~~~!!//((]]$$    ",
"  {{{{{{++%%%%&&$$$$##~~]]::__((::((:://!!~~//^^((<<==    ",
"  {{{{{{++%%%%&&$$$$##~~]]::__((::((:://!!~~//^^((<<==    ",
"  {{{{{{@@>>==####====~~,,&&++==~~!!<<<<((!!^^~~++++++    ",
"  {{{{{{@@>>==####====~~,,&&++==~~!!<<<<((!!^^~~++++++    ",
"  {{{{,,&&$$**~~====----;;))==++++$$##~~~~##&&[[}}@@      ",
"  {{{{,,&&$$**~~====----;;))==++++$$##~~~~##&&[[}}@@      ",
"  ..{{,,~~$$****--==-->>;;@@||11}}@@&&%%&&}}..##--))      ",
"  ..{{,,~~$$****--==-->>;;@@||11}}@@&&%%&&}}..##--))      ",
"    {{@@~~&&-->>--=='']]<<;;2233==++@@>>::==##!!:://**    ",
"    {{@@~~&&-->>--=='']]<<;;2233==++@@>>::==##!!:://**    ",
"    {{{{--&&@@==--==!!//::////));;!!>>--__]]##!!4455**    ",
"    {{{{--&&@@==--==!!//::////));;!!>>--__]]##!!4455**    ",
"    {{{{@@==&&,,,,,,--''))))!!<<::''==--//((##''5566==    ",
"    {{{{@@==&&,,,,,,--''))))!!<<::''==--//((##''5566==    ",
"      {{{{~~==,,,,,,,,,,,,>>//__//;;<<;;]]<<>>;;<<^^==    ",
"      {{{{~~==,,,,,,,,,,,,>>//__//;;<<;;]]<<>>;;<<^^==    ",
"      {{{{====,,,,--====--''((^^##@@++&&&&######!!]]==    ",
"      {{{{====,,,,--====--''((^^##@@++&&&&######!!]]==    ",
"        {{&&==,,,,;;'';;--]]::''##>>>>~~---->>##;;~~$$    ",
"        {{&&==,,,,;;'';;--]]::''##>>>>~~---->>##;;~~$$    ",
"            ==,,,,>>))''--!!//--==!!^^!!//::>>$$>>~~$$    ",
"            ==,,,,>>))''--!!//--==!!^^!!//::>>$$>>~~$$    ",
"                ,,==;;''--''<<,,--778811997777$$>>!!%%    ",
"                ,,==;;''--''<<,,--778811997777$$>>!!%%    ",
"                  ,,==;;--;;<<>>77770000||  77$$~~//      ",
"                  ,,==;;--;;<<>>77770000||  77$$~~//      ",
"                    ,,==----'''',,==]]aaaaaa~~,,<<))      ",
"                    ,,==----'''',,==]]aaaaaa~~,,<<))      ",
"                      ,,==----'';;@@@@,,,,,,!!44bb!!      ",
"                      ,,==----'';;@@@@,,,,,,!!44bb!!      ",
"                        **------====>>))!!^^::bb44==      ",
"                        **------====>>))!!^^::bb44==      ",
"                            **---->>>>''//^^44^^>>        ",
"                            **---->>>>''//^^44^^>>        ",
"                                @@**~~~~~~~~~~==          ",
"                                @@**~~~~~~~~~~==          ",
"                                                          "};
