/* XPM */
static char * glance_left_5_xpm[] = {
"48 58 38 1",
" 	c None",
".	c #4B371B",
"+	c #5F4323",
"@	c #6B4727",
"#	c #774F2B",
"$	c #332B13",
"%	c #533F1F",
"&	c #7F532F",
"*	c #8F5F37",
"=	c #AB6F43",
"-	c #BF7B4B",
";	c #CF8353",
">	c #9B633B",
",	c #CB7F4F",
"'	c #B37347",
")	c #875733",
"!	c #A36B3F",
"~	c #2B230F",
"{	c #3F2F17",
"]	c #EFA373",
"^	c #E79B6B",
"/	c #000000",
"(	c #D78B5B",
"_	c #FFBB93",
":	c #F7AB7B",
"<	c #DF9363",
"[	c #473323",
"}	c #675333",
"|	c #9F9F9F",
"1	c #575757",
"2	c #7F7F7F",
"3	c #FFB383",
"4	c #FFB37B",
"5	c #FFD7BB",
"6	c #FFBF9B",
"7	c #9F8363",
"8	c #9B5B13",
"9	c #FFA35B",
"          ..++++++@@##########@@++++..          ",
"          ..++++++@@##########@@++++..          ",
"      $$++%%&&**==--;;;;;;--==>>##++%%++$$      ",
"      $$++%%&&**==--;;;;;;--==>>##++%%++$$      ",
"    $$++##**==--,,;;--''>>>>>>****####%%..$$    ",
"    $$++##**==--,,;;--''>>>>>>****####%%..$$    ",
"    $$##))##**>>''))==**!!########++%%$$$$~~    ",
"    $$##))##**>>''))==**!!########++%%$$$$~~    ",
"  ~~{{++##++**>>********..**++..++..$$~~~~~~~~  ",
"  ~~{{++##++**>>********..**++..++..$$~~~~~~~~  ",
"  ~~{{..%%++**%%>>@@@@**@@..@@..{{++~~$$$${{~~  ",
"  ~~{{..%%++**%%>>@@@@**@@..@@..{{++~~$$$${{~~  ",
"  ~~....####%%**%%@@##@@@@******))))@@..{{..~~  ",
"  ~~....####%%**%%@@##@@@@******))))@@..{{..~~  ",
"  ~~..%%##**##%%!!%%##**!!''>>!!******@@....~~  ",
"  ~~..%%##**##%%!!%%##**!!''>>!!******@@....~~  ",
"  ~~..++**==''!!!!''''''''''''!!!!''==**%%..~~  ",
"  ~~..++**==''!!!!''''''''''''!!!!''==**%%..~~  ",
"  ~~..##>>;;,,,,''!!========!!'',,,,;;>>++..~~  ",
"  ~~..##>>;;,,,,''!!========!!'',,,,;;>>++..~~  ",
"  ~~..##>>;;]]^^;;--!!****!!--;;^^]];;>>##..~~  ",
"  ~~..##>>;;]]^^;;--!!****!!--;;^^]];;>>##..~~  ",
"  ~~..##{{//%%>>^^^^;;((((;;^^^^____^^''##..~~  ",
"  ~~..##{{//%%>>^^^^;;((((;;^^^^____^^''##..~~  ",
"''@@..##))##{{//>>__--::::--__<<!!%%{{{{##..@@''",
"''@@..##))##{{//>>__--::::--__<<!!%%{{{{##..@@''",
"''@@[[**''++{{//////++====++//{{{{{{++))''[[@@''",
"''@@[[**''++{{//////++====++//{{{{{{++))''[[@@''",
"**@@}}''##////||11//..%%%%..//////||22##''}}@@**",
"**@@}}''##////||11//..%%%%..//////||22##''}}@@**",
"@@++))''**==]]==@@++**;;;;**++@@==]]==**''))++@@",
"@@++))''**==]]==@@++**;;;;**++@@==]]==**''))++@@",
"))++))((((--==**==;;==::::==;;==**==--(((())++))",
"))++))((((--==**==;;==::::==;;==**==--(((())++))",
"**++**;;<<]]<<,,^^__^^____^^__^^,,<<]]<<;;**++**",
"**++**;;<<]]<<,,^^__^^____^^__^^,,<<]]<<;;**++**",
"  ++))!!==--((]]33<<((4455((<<33]]((--==!!))++  ",
"  ++))!!==--((]]33<<((4455((<<33]]((--==!!))++  ",
"  ++##>>!!--]]66((==>>7777>>==((66]]--!!>>##++  ",
"  ++##>>!!--]]66((==>>7777>>==((66]]--!!>>##++  ",
"    ##''>>((__^^!!%%##))))##%%!!^^__((>>''##    ",
"    ##''>>((__^^!!%%##))))##%%!!^^__((>>''##    ",
"    ++,,>>^^::--;;<<--!!!!--<<;;--::^^>>,,++    ",
"    ++,,>>^^::--;;<<--!!!!--<<;;--::^^>>,,++    ",
"    %%==!!((^^;;((::66((((66::((;;^^((!!==%%    ",
"    %%==!!((^^;;((::66((((66::((;;^^((!!==%%    ",
"      ))==,,((**##888888888888##**((,,==))      ",
"      ))==,,((**##888888888888##**((,,==))      ",
"      %%**'',,,,,,((^^9999^^((,,,,,,''**%%      ",
"      %%**'',,,,,,((^^9999^^((,,,,,,''**%%      ",
"        @@>>;;<<,,==**&&&&**==,,<<;;>>@@        ",
"        @@>>;;<<,,==**&&&&**==,,<<;;>>@@        ",
"          @@!!;;<<,,,,^^^^,,,,<<;;!!@@          ",
"          @@!!;;<<,,,,^^^^,,,,<<;;!!@@          ",
"            %%))''((^^6666^^((''))%%            ",
"            %%))''((^^6666^^((''))%%            ",
"                @@**!!!!!!!!**@@                ",
"                @@**!!!!!!!!**@@                "};
