/* XPM */
static char * glance_right_5_xpm[] = {
"48 58 39 1",
" 	c None",
".	c #4B371B",
"+	c #5F4323",
"@	c #6B4727",
"#	c #774F2B",
"$	c #332B13",
"%	c #533F1F",
"&	c #7F532F",
"*	c #8F5F37",
"=	c #AB6F43",
"-	c #BF7B4B",
";	c #CF8353",
">	c #9B633B",
",	c #CB7F4F",
"'	c #B37347",
")	c #875733",
"!	c #A36B3F",
"~	c #2B230F",
"{	c #3F2F17",
"]	c #EFA373",
"^	c #E79B6B",
"/	c #FFBB93",
"(	c #D78B5B",
"_	c #000000",
":	c #DF9363",
"<	c #F7AB7B",
"[	c #473323",
"}	c #675333",
"|	c #7F7F7F",
"1	c #9F9F9F",
"2	c #6B6B6B",
"3	c #575757",
"4	c #FFB383",
"5	c #FFB37B",
"6	c #FFD7BB",
"7	c #FFBF9B",
"8	c #9F8363",
"9	c #9B5B13",
"0	c #FFA35B",
"          ..++++++@@##########@@++++..          ",
"          ..++++++@@##########@@++++..          ",
"      $$++%%&&**==--;;;;;;--==>>##++%%++$$      ",
"      $$++%%&&**==--;;;;;;--==>>##++%%++$$      ",
"    $$++##**==--,,;;--''>>>>>>****####%%..$$    ",
"    $$++##**==--,,;;--''>>>>>>****####%%..$$    ",
"    $$##))##**>>''))==**!!########++%%$$$$~~    ",
"    $$##))##**>>''))==**!!########++%%$$$$~~    ",
"  ~~{{++##++**>>********..**++..++..$$~~~~~~~~  ",
"  ~~{{++##++**>>********..**++..++..$$~~~~~~~~  ",
"  ~~{{..%%++**%%>>@@@@**@@..@@..{{++~~$$$${{~~  ",
"  ~~{{..%%++**%%>>@@@@**@@..@@..{{++~~$$$${{~~  ",
"  ~~....####%%**%%@@##@@@@******))))@@..{{..~~  ",
"  ~~....####%%**%%@@##@@@@******))))@@..{{..~~  ",
"  ~~..%%##**##%%!!%%##**!!''>>!!******@@....~~  ",
"  ~~..%%##**##%%!!%%##**!!''>>!!******@@....~~  ",
"  ~~..++**==''!!!!''''''''''''!!!!''==**%%..~~  ",
"  ~~..++**==''!!!!''''''''''''!!!!''==**%%..~~  ",
"  ~~..##>>;;,,,,''!!========!!'',,,,;;>>++..~~  ",
"  ~~..##>>;;,,,,''!!========!!'',,,,;;>>++..~~  ",
"  ~~..##>>;;]]^^;;--!!****!!--;;^^]];;>>##..~~  ",
"  ~~..##>>;;]]^^;;--!!****!!--;;^^]];;>>##..~~  ",
"  ~~..##''^^////^^^^;;((((;;^^^^>>%%__{{##..~~  ",
"  ~~..##''^^////^^^^;;((((;;^^^^>>%%__{{##..~~  ",
"''@@..##{{{{%%!!:://--<<<<--//>>__{{##))##..@@''",
"''@@..##{{{{%%!!:://--<<<<--//>>__{{##))##..@@''",
"''@@[[''))++{{{{{{__++====++______{{++''**[[@@''",
"''@@[[''))++{{{{{{__++====++______{{++''**[[@@''",
"**@@}}''##||1122____..%%%%..__331122__##''}}@@**",
"**@@}}''##||1122____..%%%%..__331122__##''}}@@**",
"@@++))''**==]]==@@++**;;;;**++@@==]]==**''))++@@",
"@@++))''**==]]==@@++**;;;;**++@@==]]==**''))++@@",
"))++))((((--==**==;;==<<<<==;;==**==--(((())++))",
"))++))((((--==**==;;==<<<<==;;==**==--(((())++))",
"**++**;;::]]::,,^^//^^////^^//^^,,::]]::;;**++**",
"**++**;;::]]::,,^^//^^////^^//^^,,::]]::;;**++**",
"  ++))!!==--((]]44::((5566((::44]]((--==!!))++  ",
"  ++))!!==--((]]44::((5566((::44]]((--==!!))++  ",
"  ++##>>!!--]]77((==>>8888>>==((77]]--!!>>##++  ",
"  ++##>>!!--]]77((==>>8888>>==((77]]--!!>>##++  ",
"    ##''>>((//^^!!%%##))))##%%!!^^//((>>''##    ",
"    ##''>>((//^^!!%%##))))##%%!!^^//((>>''##    ",
"    ++,,>>^^<<--;;::--!!!!--::;;--<<^^>>,,++    ",
"    ++,,>>^^<<--;;::--!!!!--::;;--<<^^>>,,++    ",
"    %%==!!((^^;;((<<77((((77<<((;;^^((!!==%%    ",
"    %%==!!((^^;;((<<77((((77<<((;;^^((!!==%%    ",
"      ))==,,((**##999999999999##**((,,==))      ",
"      ))==,,((**##999999999999##**((,,==))      ",
"      %%**'',,,,,,((^^0000^^((,,,,,,''**%%      ",
"      %%**'',,,,,,((^^0000^^((,,,,,,''**%%      ",
"        @@>>;;::,,==**&&&&**==,,::;;>>@@        ",
"        @@>>;;::,,==**&&&&**==,,::;;>>@@        ",
"          @@!!;;::,,,,^^^^,,,,::;;!!@@          ",
"          @@!!;;::,,,,^^^^,,,,::;;!!@@          ",
"            %%))''((^^7777^^((''))%%            ",
"            %%))''((^^7777^^((''))%%            ",
"                @@**!!!!!!!!**@@                ",
"                @@**!!!!!!!!**@@                "};
