/* XPM */
static char * glance_right_2_xpm[] = {
"48 58 46 1",
" 	c None",
".	c #332B13",
"+	c #5F4323",
"@	c #533F1F",
"#	c #774F2B",
"$	c #AB6F43",
"%	c #8F5F37",
"&	c #875733",
"*	c #6B4727",
"=	c #9B633B",
"-	c #A36B3F",
";	c #CF8353",
">	c #B37347",
",	c #4B371B",
"'	c #BF7B4B",
")	c #2B230F",
"!	c #DF9363",
"~	c #EFA373",
"{	c #7F532F",
"]	c #3F2F17",
"^	c #000000",
"/	c #D78B5B",
"(	c #E79B6B",
"_	c #FFBB93",
":	c #530707",
"<	c #9B3333",
"[	c #8B2323",
"}	c #831F1F",
"|	c #8F2B2B",
"1	c #BB5757",
"2	c #CB7F4F",
"3	c #F7AB7B",
"4	c #FFC7A7",
"5	c #972F2F",
"6	c #5F0707",
"7	c #5B0707",
"8	c #771717",
"9	c #6B0F0F",
"0	c #AF4747",
"a	c #A33B3B",
"b	c #470000",
"c	c #7F1B1B",
"d	c #CB6B6B",
"e	c #B34F4F",
"f	c #DB7B7B",
"g	c #A73F3F",
"      ..++@@++++####$$%%%%$$$$%%##&&&&@@..      ",
"      ..++@@++++####$$%%%%$$$$%%##&&&&@@..      ",
"    ..@@**##====%%--==$$$$;;;;>>##&&##%%**..    ",
"    ..@@**##====%%--==$$$$;;;;>>##&&##%%**..    ",
"    ..,,##==%%%%--$$>>''''$$$$--==######%%@@    ",
"    ..,,##==%%%%--$$>>''''$$$$--==######%%@@    ",
"  ))..,,++%%%%%%--==$$''!!!!;;$$%%&&&&**&&##))  ",
"  ))..,,++%%%%%%--==$$''!!!!;;$$%%&&&&**&&##))  ",
"  )))),,##&&%%--=='';;!!~~!!;;;;>>&&%%##@@&&))  ",
"  )))),,##&&%%--=='';;!!~~!!;;;;>>&&%%##@@&&))  ",
"  ))))@@##{{%%%%**==>>;;!!;;>>--;;%%##%%@@##))  ",
"  ))))@@##{{%%%%**==>>;;!!;;>>--;;%%##%%@@##))  ",
"  ))))@@##{{****==$$;;>>;;>>''>>%%;;##%%@@**))  ",
"  ))))@@##{{****==$$;;>>;;>>''>>%%;;##%%@@**))  ",
"  ))..]]@@**]]**%%;;==$$======''==>>++**,,++))  ",
"  ))..]]@@**]]**%%;;==$$======''==>>++**,,++))  ",
"  ))....]]..,,{{%%$$==%%**%%==$${{==@@**,,..))  ",
"  ))....]]..,,{{%%$$==%%**%%==$${{==@@**,,..))  ",
"  ))........,,##$$&&&&{{]]{{==--++&&,,,,..]]))  ",
"  ))........,,##$$&&&&{{]]{{==--++&&,,,,..]]))  ",
"  )),,..++]],,++%%##%%++]]++##==..##,,..,,++))  ",
"  )),,..++]],,++%%##%%++]]++##==..##,,..,,++))  ",
"%%**]],,++##]]++##**%%@@##]]##==++..++..##++))++",
"%%**]],,++##]]++##**%%@@##]]##==++..++..##++))++",
"&&>>,,,,##==##]]++++&&..$$]]@@&&$$++..++==##^^++",
"&&>>,,,,##==##]]++++&&..$$]]@@&&$$++..++==##^^++",
"**&&//,,##==;;##..@@@@..//]]@@%%''////%%==##]]++",
"**&&//,,##==;;##..@@@@..//]]@@%%''////%%==##]]++",
"**++--,,%%//((__++..@@..====..##''//!!((//%%]]++",
"**++--,,%%//((__++..@@..====..##''//!!((//%%]]++",
"&&++&&&&%%%%%%%%%%..@@....%%>>$$==,,,,@@==++++++",
"&&++&&&&%%%%%%%%%%..@@....%%>>$$==,,,,@@==++++++",
"%%>>&&&&%%++::<<[[^^^^,,@@..,,^^::}}^^^^++&&++++",
"%%>>&&&&%%++::<<[[^^^^,,@@..,,^^::}}^^^^++&&++++",
"  %%&&%%>>%%**::::<<||**%%%%**++::[[11::==&&++  ",
"  %%&&%%>>%%**::::<<||**%%%%**++::[[11::==&&++  ",
"  ++##%%''~~;;==**%%22//33__//22%%****==$$##++  ",
"  ++##%%''~~;;==**%%22//33__//22%%****==$$##++  ",
"  ++####--//4444~~33((//____((((33~~4444//##++  ",
"  ++####--//4444~~33((//____((((33~~4444//##++  ",
"    ##%%%%--//__33>>%%//~~44//;;!!33__(($$##    ",
"    ##%%%%--//__33>>%%//~~44//;;!!33__(($$##    ",
"    ##%%--%%''44!!--##>>!!((--##>>!!33!!$$##    ",
"    ##%%--%%''44!!--##>>!!((--##>>!!33!!$$##    ",
"    @@&&%%##==//;;5566##////##7755;;////&&@@    ",
"    @@&&%%##==//;;5566##////##7755;;////&&@@    ",
"      **&&**%%2211>>8877++++9999>>1122>>##]]    ",
"      **&&**%%2211>>8877++++9999>>1122>>##]]    ",
"      @@****&&1100aa::bb++++ccccaa0011>>##      ",
"      @@****&&1100aa::bb++++ccccaa0011>>##      ",
"        ]]++&&$$1111<<00dddd00<<1111$$==@@      ",
"        ]]++&&$$1111<<00dddd00<<1111$$==@@      ",
"          ]]++==!!!![[[[@@@@7777!!>>$$##        ",
"          ]]++==!!!![[[[@@@@7777!!>>$$##        ",
"            ]]**-->><<eeff33eeee;;--**          ",
"            ]]**-->><<eeff33eeee;;--**          ",
"              ]]@@--ccgg////||||--@@            ",
"              ]]@@--ccgg////||||--@@            "};
