/* XPM */
static char * ouch_5_xpm[] = {
"58 62 40 1",
" 	c None",
".	c #4B371B",
"+	c #5F4323",
"@	c #6B4727",
"#	c #774F2B",
"$	c #332B13",
"%	c #533F1F",
"&	c #8F5F37",
"*	c #BF7B4B",
"=	c #B37347",
"-	c #CF8353",
";	c #AB6F43",
">	c #9B633B",
",	c #CB7F4F",
"'	c #A36B3F",
")	c #875733",
"!	c #2B230F",
"~	c #3F2F17",
"{	c #D78B5B",
"]	c #E79B6B",
"^	c #EFA373",
"/	c #FFBB93",
"(	c #FFCFB3",
"_	c #FFB383",
":	c #DF9363",
"<	c #473323",
"[	c #000000",
"}	c #777777",
"|	c #A7A7A7",
"1	c #F7AB7B",
"2	c #5B5B5B",
"3	c #FFB37B",
"4	c #FFD7BB",
"5	c #9F8363",
"6	c #7F532F",
"7	c #2F2F2F",
"8	c #5F0707",
"9	c #8F2B2B",
"0	c #7F1B1B",
"a	c #FFBF9B",
"               ..++++++@@##########@@++++..               ",
"               ..++++++@@##########@@++++..               ",
"           $$++%%++@@&&**==----==;;>>##++%%++$$           ",
"           $$++%%++@@&&**==----==;;>>##++%%++$$           ",
"         $$++##&&>>**,,--''==>>>>>>&&&&####%%..$$         ",
"         $$++##&&>>**,,--''==>>>>>>&&&&####%%..$$         ",
"         $$##))##&&>>==));;&&''########++%%$$$$!!         ",
"         $$##))##&&>>==));;&&''########++%%$$$$!!         ",
"       !!~~++##++&&>>&&&&&&&&..&&++..++..$$!!!!!!!!       ",
"       !!~~++##++&&>>&&&&&&&&..&&++..++..$$!!!!!!!!       ",
"       !!~~..%%++&&%%>>@@@@&&@@..@@..~~++!!$$$$~~!!       ",
"       !!~~..%%++&&%%>>@@@@&&@@..@@..~~++!!$$$$~~!!       ",
"       !!....####%%&&%%@@##@@@@&&&&&&))))@@..~~..!!       ",
"       !!....####%%&&%%@@##@@@@&&&&&&))))@@..~~..!!       ",
"       !!..%%##&&##%%''%%##&&''==>>''&&&&&&@@....!!       ",
"       !!..%%##&&##%%''%%##&&''==>>''&&&&&&@@....!!       ",
"       !!..++&&;;==''''=={{]]]]{{=={{''==;;&&%%..!!       ",
"       !!..++&&;;==''''=={{]]]]{{=={{''==;;&&%%..!!       ",
"       !!..##>>--,,,,=={{;;;;;;;;{{==>>>>-->>++..!!       ",
"       !!..##>>--,,,,=={{;;;;;;;;{{==>>>>-->>++..!!       ",
"       !!..##>>--^^]]--**''{{]]''**>>]]^^-->>##..!!       ",
"       !!..##>>--^^]]--**''{{]]''**>>]]^^-->>##..!!       ",
"       !!..##==]]////]]{{=={{{{;;;;((^^//]]==##..!!       ",
"       !!..##==]]////]]{{=={{{{;;;;((^^//]]==##..!!       ",
"     ==@@..&&@@@@))--__(({{====--((::''%%@@@@&&..@@==     ",
"     ==@@..&&@@@@))--__(({{====--((::''%%@@@@&&..@@==     ",
"     ==@@<<##::;;&&~~@@))::]]--]]==@@~~&&;;::##<<@@==     ",
"     ==@@<<##::;;&&~~@@))::]]--]]==@@~~&&;;::##<<@@==     ",
"     &&@@))@@&&[[}}||~~..&&::**&&..~~}}||[[&&@@))@@&&     ",
"     &&@@))@@&&[[}}||~~..&&::**&&..~~}}||[[&&@@))@@&&     ",
"     @@++))))%%}}..[[||[[%%''11%%[[}}[[..||%%))))++@@     ",
"     @@++))))%%}}..[[||[[%%''11%%[[}}[[..||%%))))++@@     ",
"     ))++))--==++2222--11&&**]]&&11--2222++==--))++))     ",
"     ))++))--==++2222--11&&**]]&&11--2222++==--))++))     ",
"     &&++&&--]]==++))--//{{--33{{//--))++==]]--&&++&&     ",
"     &&++&&--]]==++))--//{{--33{{//--))++==]]--&&++&&     ",
"       ++&&**]]1111//^^11{{3344{{1111^^//11]]**&&++       ",
"       ++&&**]]1111//^^11{{3344{{1111^^//11]]**&&++       ",
"       ++&&&&==;;]]--&&;;>>5555>>;;&&--]];;**&&&&++       ",
"       ++&&&&==;;]]--&&;;>>5555>>;;&&--]];;**&&&&++       ",
"       ++''6666'']]&&))%%##))))##%%))&&]]''6666''++       ",
"       ++''6666'']]&&))%%##))))##%%))&&]]''6666''++       ",
"         &&&&))''{{@@=={{>>@@@@>>{{==@@{{''))''&&         ",
"         &&&&))''{{@@=={{>>@@@@>>{{==@@{{''))''&&         ",
"         66''66''--##==11{{{{{{{{11==##--''66**66         ",
"         66''66''--##==11{{{{{{{{11==##--''66**66         ",
"           &&66>>**>>{{;;########;;{{>>**>>66''           ",
"           &&66>>**>>{{;;########;;{{>>**>>66''           ",
"           ))66))**>>==7722}}}}2277==>>**6666))           ",
"           ))66))**>>==7722}}}}2277==>>**6666))           ",
"           ##6666'';;>>[[[[[[[[[[[[>>;;''##66##           ",
"           ##6666'';;>>[[[[[[[[[[[[>>;;''##66##           ",
"             66##&&**))[[88[[[[88[[))**&&##66             ",
"             66##&&**))[[88[[[[88[[))**&&##66             ",
"             ####))--''229900009922''--))####             ",
"             ####))--''229900009922''--))####             ",
"               ##66==;;&&22}}}}22&&;;==66##               ",
"               ##66==;;&&22}}}}22&&;;==66##               ",
"                 ##&&;;;;&&6666&&;;;;&&##                 ",
"                 ##&&;;;;&&6666&&;;;;&&##                 ",
"                   ##>>,,^^aaaa^^,,>>##                   ",
"                   ##>>,,^^aaaa^^,,>>##                   "};
