/* XPM */
static char * straight_2_xpm[] = {
"48 58 46 1",
" 	c None",
".	c #332B13",
"+	c #5F4323",
"@	c #533F1F",
"#	c #774F2B",
"$	c #AB6F43",
"%	c #8F5F37",
"&	c #6B4727",
"*	c #875733",
"=	c #9B633B",
"-	c #A36B3F",
";	c #CF8353",
">	c #B37347",
",	c #4B371B",
"'	c #BF7B4B",
")	c #3F2F17",
"!	c #2B230F",
"~	c #DF9363",
"{	c #E79B6B",
"]	c #7F532F",
"^	c #CB7F4F",
"/	c #D78B5B",
"(	c #D37373",
"_	c #5F0707",
":	c #000000",
"<	c #AF4747",
"[	c #9B3333",
"}	c #8B2323",
"|	c #F7AB7B",
"1	c #FFBB93",
"2	c #FFC7A7",
"3	c #EFA373",
"4	c #B34F4F",
"5	c #972F2F",
"6	c #5B0707",
"7	c #BB5757",
"8	c #771717",
"9	c #6B0F0F",
"0	c #530707",
"a	c #470000",
"b	c #7F1B1B",
"c	c #A33B3B",
"d	c #CB6B6B",
"e	c #DB7B7B",
"f	c #A73F3F",
"g	c #8F2B2B",
"      ..++@@++####$$%%&&%%$$%%##****@@++..      ",
"      ..++@@++####$$%%&&%%$$%%##****@@++..      ",
"    ..@@&&##==%%--==$$%%$$;;>>##**##%%&&,,..    ",
"    ..@@&&##==%%--==$$%%$$;;>>##**##%%&&,,..    ",
"    ..,,##==%%--$$>>''''''$$--==######%%@@))    ",
"    ..,,##==%%--$$>>''''''$$--==######%%@@))    ",
"  !!,,++%%%%--==$$''~~~~~~;;$$%%****&&**##,,!!  ",
"  !!,,++%%%%--==$$''~~~~~~;;$$%%****&&**##,,!!  ",
"  !!,,##**%%--=='';;~~{{{{~~;;==**%%##@@**,,!!  ",
"  !!,,##**%%--=='';;~~{{{{~~;;==**%%##@@**,,!!  ",
"  !!@@##]]%%%%&&==>>~~~~;;^^----%%##%%@@##,,!!  ",
"  !!@@##]]%%%%&&==>>~~~~;;^^----%%##%%@@##,,!!  ",
"  !!@@##]]&&&&==$$;;>>;;>>^^>>%%--##%%@@&&))!!  ",
"  !!@@##]]&&&&==$$;;>>;;>>^^>>%%--##%%@@&&))!!  ",
"  !!))@@&&))&&%%''==$$======^^==>>++&&,,++..!!  ",
"  !!))@@&&))&&%%''==$$======^^==>>++&&,,++..!!  ",
"  !!..))..,,]]%%$$==%%&&%%==^^]]==@@&&,,..))!!  ",
"  !!..))..,,]]%%$$==%%&&%%==^^]]==@@&&,,..))!!  ",
"  !!......,,##$$****]]))]]==--++**,,,,..)),,!!  ",
"  !!......,,##$$****]]))]]==--++**,,,,..)),,!!  ",
"  !!..++)),,++%%##%%++))++##==..##,,..,,++,,!!  ",
"  !!..++)),,++%%##%%++))++##==..##,,..,,++,,!!  ",
">>!!,,++##))++##&&%%@@##))##==++..++..##++,,!!>>",
">>!!,,++##))++##&&%%@@##))##==++..++..##++,,!!>>",
">>)),,##==##))++++**..$$))@@**$$++..++==##,,))>>",
">>)),,##==##))++++**..$$))@@**$$++..++==##,,))>>",
"%%)),,##>>$$##..@@@@..//))@@%%''////;;''##,,))%%",
"%%)),,##>>$$##..@@@@..//))@@%%''////;;''##,,))%%",
"&&)),,%%//{{$$++..@@..====..##''//~~{{//%%++))&&",
"&&)),,%%//{{$$++..@@..====..##''//~~{{//%%++))&&",
"**++++%%%%%%%%%%..@@..&&%%>>====%%%%%%%%%%++++**",
"**++++%%%%%%%%%%..@@..&&%%>>====%%%%%%%%%%++++**",
"%%++++%%++((__::::__,,@@..,,__::::__((++%%**++%%",
"%%++++%%++((__::::__,,@@..,,__::::__((++%%**++%%",
"  ++**>>%%&&((<<[[}}&&%%%%&&}}[[<<((&&%%>>**++  ",
"  ++**>>%%&&((<<[[}}&&%%%%&&}}[[<<((&&%%>>**++  ",
"  ++**''//%%&&&&%%^^//||11//^^%%&&&&%%//''##++  ",
"  ++**''//%%&&&&%%^^//||11//^^%%&&&&%%//''##++  ",
"  ++##--//222233||{{{{1111{{{{||332222//--##++  ",
"  ++##--//222233||{{{{1111{{{{||332222//--##++  ",
"    ##%%==''11||~~>>//2222//>>~~||11''==%%##    ",
"    ##%%==''11||~~>>//2222//>>~~||11''==%%##    ",
"    ##--%%''||~~44##>>{{{{--##44~~||''%%--##    ",
"    ##--%%''||~~44##>>{{{{--##44~~||''%%--##    ",
"    @@%%##''//;;55__##////##6655;;//''##%%@@    ",
"    @@%%##''//;;55__##////##6655;;//''##%%@@    ",
"      &&##>>^^77>>8866++++9999>>77^^>>##&&      ",
"      &&##>>^^77>>8866++++9999>>77^^>>##&&      ",
"        &&>>77<<<<00aa++++bbbbcc<<77>>&&        ",
"        &&>>77<<<<00aa++++bbbbcc<<77>>&&        ",
"        @@==$$7744[[<<dddd<<[[7777$$==@@        ",
"        @@==$$7744[[<<dddd<<[[7777$$==@@        ",
"          @@$$>>~~}}}}@@@@6666~~>>$$@@          ",
"          @@$$>>~~}}}}@@@@6666~~>>$$@@          ",
"            &&-->>[[44ee||4444;;--&&            ",
"            &&-->>[[44ee||4444;;--&&            ",
"              @@--bbff////gggg--@@              ",
"              @@--bbff////gggg--@@              "};
